<svg width="21" height="27" viewBox="0 0 21 27" fill="none" xmlns="http://www.w3.org/2000/svg">
<path d="M20.9987 6.11382V23.6252C20.9987 25.489 19.5297 27 17.7176 27H3.28104C1.46897 27 0 25.489 0 23.6252V3.37618C0 1.51232 1.46897 0.00135314 3.28104 0.00135314H15.0561C15.2303 -0.0100126 15.4117 0.0497342 15.5568 0.199046L20.8065 5.59878C20.9516 5.74809 21.0097 5.93462 20.9987 6.11382ZM14.4366 1.35129H3.28104C2.1938 1.35129 1.31242 2.25786 1.31242 3.37618V23.6252C1.31242 24.7435 2.1938 25.6501 3.28104 25.6501H17.7176C18.8049 25.6501 19.6863 24.7435 19.6863 23.6252V6.75101H15.0928C14.7304 6.75101 14.4366 6.44882 14.4366 6.07605V1.35129ZM15.749 2.30583V5.40108H18.7582L15.749 2.30583ZM5.90588 10.7995C5.54347 10.7995 5.24967 10.4973 5.24967 10.1245C5.24967 9.75172 5.54347 9.44953 5.90588 9.44953H15.0928C15.4552 9.44953 15.749 9.75172 15.749 10.1245C15.749 10.4973 15.4552 10.7995 15.0928 10.7995H5.90588ZM5.90588 14.8493C5.54347 14.8493 5.24967 14.5471 5.24967 14.1743C5.24967 13.8015 5.54347 13.4993 5.90588 13.4993H15.0928C15.4552 13.4993 15.749 13.8015 15.749 14.1743C15.749 14.5471 15.4552 14.8493 15.0928 14.8493H5.90588ZM5.90588 18.8991C5.54347 18.8991 5.24967 18.5969 5.24967 18.2241C5.24967 17.8513 5.54347 17.5491 5.90588 17.5491H12.468C12.8304 17.5491 13.1242 17.8513 13.1242 18.2241C13.1242 18.5969 12.8304 18.8991 12.468 18.8991H5.90588Z" fill="#4766AA"/>
</svg>
