<svg width="22" height="27" viewBox="0 0 22 27" fill="none" xmlns="http://www.w3.org/2000/svg">
<path d="M21.9986 6.11382V23.6252C21.9986 25.489 20.4597 27 18.5613 27H3.43728C1.53892 27 0 25.489 0 23.6252V3.37618C0 1.51232 1.53892 0.00135314 3.43728 0.00135314H15.773C15.9556 -0.0100126 16.1455 0.0497342 16.2976 0.199046L21.7973 5.59878C21.9493 5.74809 22.0102 5.93462 21.9986 6.11382ZM15.1241 1.35129H3.43728C2.29827 1.35129 1.37491 2.25786 1.37491 3.37618V23.6252C1.37491 24.7435 2.29827 25.6501 3.43728 25.6501H18.5613C19.7004 25.6501 20.6237 24.7435 20.6237 23.6252V6.75101H15.8115C15.4318 6.75101 15.1241 6.44882 15.1241 6.07605V1.35129ZM16.499 2.30583V5.40108H19.6515L16.499 2.30583ZM6.18711 10.7995C5.80744 10.7995 5.49966 10.4973 5.49966 10.1245C5.49966 9.75172 5.80744 9.44953 6.18711 9.44953H15.8115C16.1912 9.44953 16.499 9.75172 16.499 10.1245C16.499 10.4973 16.1912 10.7995 15.8115 10.7995H6.18711ZM6.18711 14.8493C5.80744 14.8493 5.49966 14.5471 5.49966 14.1743C5.49966 13.8015 5.80744 13.4993 6.18711 13.4993H15.8115C16.1912 13.4993 16.499 13.8015 16.499 14.1743C16.499 14.5471 16.1912 14.8493 15.8115 14.8493H6.18711ZM6.18711 18.8991C5.80744 18.8991 5.49966 18.5969 5.49966 18.2241C5.49966 17.8513 5.80744 17.5491 6.18711 17.5491H13.0617C13.4414 17.5491 13.7491 17.8513 13.7491 18.2241C13.7491 18.5969 13.4414 18.8991 13.0617 18.8991H6.18711Z" fill="black"/>
</svg>
